<svg width="20" height="21" viewBox="0 0 20 21" fill="none" xmlns="http://www.w3.org/2000/svg">
<g id="Frame" clip-path="url(#clip0_1_3286)">
<path id="Vector" d="M8.31068 15.5024H11.689C11.799 14.5008 12.3098 13.6741 13.139 12.7716C13.2332 12.6699 13.8323 12.0491 13.9032 11.9608C14.4918 11.2254 14.8607 10.3388 14.9674 9.40307C15.0742 8.46728 14.9145 7.52037 14.5067 6.67137C14.0989 5.82237 13.4596 5.10582 12.6624 4.60423C11.8652 4.10265 10.9426 3.83642 10.0007 3.83622C9.05889 3.83602 8.13613 4.10185 7.33873 4.6031C6.54133 5.10434 5.90172 5.82062 5.49356 6.66945C5.0854 7.51827 4.92529 8.46511 5.03167 9.40094C5.13805 10.3368 5.50659 11.2235 6.09484 11.9591C6.16651 12.0483 6.76734 12.6699 6.85984 12.7708C7.68985 13.6741 8.20068 14.5008 8.31068 15.5024ZM11.6665 17.1691H8.33318V18.0024H11.6665V17.1691ZM4.79484 13.0024C4.01 12.0218 3.51813 10.8395 3.3759 9.59156C3.23366 8.34364 3.44684 7.08093 3.99089 5.94887C4.53493 4.81682 5.38771 3.86148 6.45097 3.19291C7.51424 2.52433 8.74475 2.16972 10.0007 2.16992C11.2567 2.17012 12.4871 2.52513 13.5502 3.19404C14.6132 3.86296 15.4657 4.81857 16.0094 5.9508C16.5531 7.08303 16.7659 8.34581 16.6232 9.59368C16.4806 10.8416 15.9883 12.0237 15.2032 13.0041C14.6865 13.6474 13.3332 14.6691 13.3332 15.9191V18.0024C13.3332 18.4444 13.1576 18.8684 12.845 19.1809C12.5325 19.4935 12.1085 19.6691 11.6665 19.6691H8.33318C7.89115 19.6691 7.46723 19.4935 7.15467 19.1809C6.84211 18.8684 6.66651 18.4444 6.66651 18.0024V15.9191C6.66651 14.6691 5.31234 13.6474 4.79484 13.0024ZM10.8332 8.83909H12.9165L9.16651 13.8391V10.5058H7.08318L10.8332 5.50242V8.83992V8.83909Z" fill="#475057"/>
</g>
<defs>
<clipPath id="clip0_1_3286">
<rect width="20" height="20" fill="white" transform="translate(0 0.5)"/>
</clipPath>
</defs>
</svg>
