<svg width="16" height="16" viewBox="0 0 16 16" fill="none" xmlns="http://www.w3.org/2000/svg">
<g id="Filter">
<g id="Filter_2">
<path id="Stroke 1" d="M7.02773 11.6499H2.521" stroke="#475057" stroke-width="1.5" stroke-linecap="round" stroke-linejoin="round"/>
<path id="Stroke 3" d="M9.03809 4.71696H13.5448" stroke="#475057" stroke-width="1.5" stroke-linecap="round" stroke-linejoin="round"/>
<path id="Stroke 5" fill-rule="evenodd" clip-rule="evenodd" d="M5.88059 4.67821C5.88059 3.75146 5.12371 3 4.19029 3C3.25687 3 2.5 3.75146 2.5 4.67821C2.5 5.60496 3.25687 6.35642 4.19029 6.35642C5.12371 6.35642 5.88059 5.60496 5.88059 4.67821Z" stroke="#475057" stroke-width="1.5" stroke-linecap="round" stroke-linejoin="round"/>
<path id="Stroke 7" fill-rule="evenodd" clip-rule="evenodd" d="M13.9445 11.6218C13.9445 10.695 13.1883 9.94354 12.2548 9.94354C11.3208 9.94354 10.564 10.695 10.564 11.6218C10.564 12.5485 11.3208 13.3 12.2548 13.3C13.1883 13.3 13.9445 12.5485 13.9445 11.6218Z" stroke="#475057" stroke-width="1.5" stroke-linecap="round" stroke-linejoin="round"/>
</g>
</g>
</svg>
