<svg width="20" height="20" viewBox="0 0 20 20" fill="none" xmlns="http://www.w3.org/2000/svg">
<g id="bullet-list">
<rect width="20" height="20" transform="translate(20) rotate(90)" fill="white" fill-opacity="0.01"/>
<path id="Vector" d="M9.9999 2.22501C8.90222 2.22501 8.0249 3.11068 8.0249 4.20001C8.0249 5.29769 8.91057 6.17501 9.9999 6.17501C11.0976 6.17501 11.9749 5.28933 11.9749 4.20001C11.9749 3.10232 11.0892 2.22501 9.9999 2.22501ZM9.9999 8.62501C8.90222 8.62501 8.0249 9.51068 8.0249 10.6C8.0249 11.6977 8.91057 12.575 9.9999 12.575C11.0976 12.575 11.9749 11.6893 11.9749 10.6C11.9749 9.50232 11.0892 8.62501 9.9999 8.62501ZM9.9999 15.025C8.90222 15.025 8.0249 15.9107 8.0249 17C8.0249 18.0977 8.91057 18.975 9.9999 18.975C11.0976 18.975 11.9749 18.0893 11.9749 17C11.9749 15.9023 11.0892 15.025 9.9999 15.025Z" fill="#475057" stroke="#475057" stroke-width="0.75"/>
</g>
</svg>
