<svg width="19" height="19" viewBox="0 0 19 19" fill="none" xmlns="http://www.w3.org/2000/svg">
<g id="vuesax/linear/setting-2">
<g id="setting-2">
<path id="Vector" d="M9.8551 11.756C11.1023 11.756 12.1133 10.7449 12.1133 9.49774C12.1133 8.25055 11.1023 7.2395 9.8551 7.2395C8.60791 7.2395 7.59686 8.25055 7.59686 9.49774C7.59686 10.7449 8.60791 11.756 9.8551 11.756Z" stroke="#475057" stroke-width="1.64236" stroke-miterlimit="10" stroke-linecap="round" stroke-linejoin="round"/>
<path id="Vector_2" d="M2.32764 10.1602L2.32764 8.83533C2.32764 8.05247 2.96747 7.40511 3.75786 7.40511C5.12033 7.40511 5.67736 6.44159 4.99236 5.25978C4.60093 4.58231 4.83428 3.70159 5.51928 3.31016L6.82154 2.56494C7.41621 2.21115 8.18401 2.42192 8.5378 3.01659L8.6206 3.15961C9.29808 4.34143 10.4121 4.34143 11.0971 3.15961L11.1799 3.01659C11.5337 2.42192 12.3015 2.21115 12.8962 2.56494L14.1985 3.31016C14.8835 3.70159 15.1168 4.58231 14.7254 5.25978C14.0404 6.44159 14.5974 7.40511 15.9599 7.40511C16.7427 7.40511 17.3901 8.04494 17.3901 8.83533L17.3901 10.1602C17.3901 10.943 16.7503 11.5904 15.9599 11.5904C14.5974 11.5904 14.0404 12.5539 14.7254 13.7357C15.1168 14.4207 14.8835 15.2939 14.1985 15.6853L12.8962 16.4305C12.3015 16.7843 11.5337 16.5736 11.1799 15.9789L11.0971 15.8359C10.4197 14.6541 9.3056 14.6541 8.6206 15.8359L8.5378 15.9789C8.18401 16.5736 7.41621 16.7843 6.82154 16.4305L5.51928 15.6853C4.83428 15.2939 4.60093 14.4132 4.99236 13.7357C5.67736 12.5539 5.12033 11.5904 3.75786 11.5904C2.96747 11.5904 2.32764 10.943 2.32764 10.1602Z" stroke="#475057" stroke-width="1.64236" stroke-miterlimit="10" stroke-linecap="round" stroke-linejoin="round"/>
</g>
</g>
</svg>
