<svg width="16" height="16" viewBox="0 0 16 16" fill="none" xmlns="http://www.w3.org/2000/svg">
<g id="Group 14096">
<g id="Sort by">
<g id="icon">
<g id="Group 10354">
<path id="descending" d="M6.83577 11.0847C6.95876 11.2098 7.02784 11.3792 7.02784 11.5559C7.02784 11.7326 6.95876 11.9021 6.83577 12.0271L5.084 13.8049C4.96078 13.9298 4.79379 13.9999 4.61969 13.9999C4.44559 13.9999 4.2786 13.9298 4.15537 13.8049L2.40361 12.0271C2.27998 11.9026 2.21015 11.7334 2.20948 11.5567C2.2088 11.3799 2.27733 11.2102 2.4 11.0847C2.52266 10.9592 2.68941 10.8884 2.86357 10.8877C3.03772 10.887 3.205 10.9566 3.32863 11.081L3.95973 11.7215V2.66324C3.96603 2.49073 4.03799 2.32742 4.16047 2.20763C4.28296 2.08785 4.44643 2.02092 4.61653 2.02092C4.78663 2.02092 4.95011 2.08785 5.07259 2.20763C5.19508 2.32742 5.26703 2.49073 5.27333 2.66324V11.7215L5.90444 11.081C6.02766 10.9562 6.19465 10.8861 6.36875 10.8861C6.54285 10.8861 6.70984 10.9562 6.83306 11.081L6.83577 11.0847Z" fill="#475057"/>
<path id="descending_2" d="M12.7486 4.91516C12.8716 4.7901 12.9407 4.62063 12.9407 4.44394C12.9407 4.26725 12.8716 4.09778 12.7486 3.97273L10.9968 2.19493C10.8736 2.0701 10.7066 2 10.5325 2C10.3584 2 10.1914 2.0701 10.0682 2.19493L8.31645 3.97273C8.19283 4.09722 8.123 4.26645 8.12232 4.44319C8.12198 4.5307 8.13864 4.61742 8.17133 4.6984C8.20402 4.77938 8.2521 4.85304 8.31284 4.91516C8.37358 4.97728 8.44578 5.02665 8.52532 5.06045C8.60486 5.09426 8.69018 5.11183 8.77641 5.11217C8.95056 5.11286 9.11785 5.04331 9.24147 4.91882L9.87257 4.27833V13.3366C9.87887 13.5091 9.95083 13.6724 10.0733 13.7922C10.1958 13.912 10.3593 13.9789 10.5294 13.9789C10.6995 13.9789 10.8629 13.912 10.9854 13.7922C11.1079 13.6724 11.1799 13.5091 11.1862 13.3366V4.27833L11.8173 4.91882C11.9405 5.04364 12.1075 5.11374 12.2816 5.11374C12.4557 5.11374 12.6227 5.04364 12.7459 4.91882L12.7486 4.91516Z" fill="#475057"/>
</g>
</g>
</g>
</g>
</svg>
