<svg width="18" height="17" viewBox="0 0 18 17" fill="none" xmlns="http://www.w3.org/2000/svg">
<g id="translate-2" clip-path="url(#clip0_1_3266)">
<path id="Vector" d="M13.7563 7.15574L17.2139 15.7133L15.5205 15.7133L14.5767 13.3794L11.3627 13.3794L10.4205 15.7133L8.72788 15.7133L12.1847 7.15574L13.7563 7.15574ZM7.07688 0.932068L7.07688 2.48799L11.7918 2.48799L11.7918 4.0439L10.2455 4.04437C9.62489 5.88468 8.64757 7.54915 7.40024 8.94582C7.96831 9.44737 8.58329 9.89229 9.23591 10.2737L8.64608 11.7344C7.80274 11.2619 7.01358 10.6973 6.29076 10.0536C4.88762 11.3038 3.23356 12.2555 1.41814 12.8141L0.996676 11.3133C2.5494 10.8279 3.96931 10.0137 5.18339 8.94668C4.29727 7.95556 3.54756 6.82888 2.96503 5.60004L4.7248 5.60011C5.16749 6.408 5.69368 7.15831 6.2908 7.83801C7.25628 6.73959 8.03597 5.4568 8.5774 4.04469L0.790344 4.0439L0.790344 2.48799L5.50525 2.48799L5.50525 0.932068L7.07688 0.932068ZM12.9705 9.40031L11.9906 11.8235L13.9489 11.8235L12.9705 9.40031Z" fill="#475057"/>
</g>
<defs>
<clipPath id="clip0_1_3266">
<rect width="16.4236" height="16.4236" fill="white" transform="translate(0.789917 0.111267)"/>
</clipPath>
</defs>
</svg>
