<svg width="14" height="16" viewBox="0 0 14 16" fill="none" xmlns="http://www.w3.org/2000/svg">
<path id="Vector" d="M1.34266 12.7045V8.46925C1.34266 6.97155 1.93868 5.5352 2.99959 4.47617C4.0605 3.41714 5.4994 2.82219 6.99975 2.82219C8.50011 2.82219 9.93901 3.41714 10.9999 4.47617C12.0608 5.5352 12.6568 6.97155 12.6568 8.46925V12.7045V14.5869V15.9987H1.42833V14.5869L1.34266 12.7045ZM2.75694 8.46925H4.17121C4.17121 7.7204 4.46922 7.00222 4.99967 6.47271C5.53013 5.94319 6.24958 5.64572 6.99975 5.64572V4.23395C5.87449 4.23395 4.79531 4.68017 3.99963 5.47444C3.20395 6.26871 2.75694 7.34598 2.75694 8.46925ZM6.29262 -0.00134277H7.70689V2.1163H6.29262V-0.00134277ZM12.4999 1.98077L13.4998 2.97889L12.0006 4.47607L11 3.47795L12.4999 1.98077ZM0.499756 2.97889L1.49965 1.98077L2.99948 3.47725L2.0003 4.47677L0.499756 2.97889Z" fill="#E1A825"/>
</svg>
