<svg width="20" height="20" viewBox="0 0 20 20" fill="none" xmlns="http://www.w3.org/2000/svg">
<g id="x-octagon">
<g id="Group 15839">
<path id="Subtract" fill-rule="evenodd" clip-rule="evenodd" d="M6.78043 2.22351H13.2204L17.7782 6.78129V13.2213L13.2204 17.7791H6.78043L2.22266 13.2213V6.78129L6.78043 2.22351ZM12.6156 7.38536C12.8326 7.60232 12.8326 7.95408 12.6156 8.17104L10.7862 10.0004L12.6156 11.8298C12.8326 12.0468 12.8326 12.3985 12.6156 12.6155C12.3986 12.8324 12.0469 12.8324 11.8299 12.6155L10.0005 10.7861L8.17116 12.6155C7.9542 12.8324 7.60244 12.8324 7.38548 12.6155C7.16853 12.3985 7.16853 12.0468 7.38548 11.8298L9.21487 10.0004L7.38548 8.17104C7.16853 7.95408 7.16853 7.60232 7.38548 7.38536C7.60244 7.1684 7.9542 7.1684 8.17116 7.38536L10.0005 9.21475L11.8299 7.38536C12.0469 7.1684 12.3986 7.1684 12.6156 7.38536Z" fill="#5A55B5"/>
</g>
</g>
</svg>
